<?xml version="1.0" standalone="no"?><!DOCTYPE svg PUBLIC "-//W3C//DTD SVG 1.1//EN" "http://www.w3.org/Graphics/SVG/1.1/DTD/svg11.dtd"><svg t="1587214078538" class="icon" viewBox="0 0 1024 1024" version="1.1" xmlns="http://www.w3.org/2000/svg" p-id="7320" xmlns:xlink="http://www.w3.org/1999/xlink" width="200" height="200"><defs><style type="text/css"></style></defs><path d="M511.488 351.04l90.24-90.24a192.384 192.384 0 0 1 271.808-0.256 192.192 192.192 0 0 1-0.256 271.808L556.8 848.768a63.936 63.936 0 0 1-90.752 0L149.76 532.352a192.384 192.384 0 0 1-0.256-271.808 192.192 192.192 0 0 1 271.808 0.32l90.24 90.24zM466.56 215.68a256.192 256.192 0 0 0-362.368-0.32 256.384 256.384 0 0 0 0.32 362.304l316.352 316.416a127.872 127.872 0 0 0 181.312 0l316.352-316.416a256.192 256.192 0 0 0 0.256-362.304 256.384 256.384 0 0 0-362.304 0.32l-44.992 44.928-44.928-44.928z" p-id="7321" fill="#ffffff"></path></svg>